<?xml version="1.0" encoding="iso-8859-1"?>
<!-- Generator: Adobe Illustrator 19.0.0, SVG Export Plug-In . SVG Version: 6.00 Build 0)  -->
<svg xmlns="http://www.w3.org/2000/svg" xmlns:xlink="http://www.w3.org/1999/xlink" version="1.1" id="Capa_1" x="0px" y="0px" viewBox="0 0 464.738 464.738" style="enable-background:new 0 0 464.738 464.738;" xml:space="preserve" width="512px" height="512px">
<g>
	<g>
		<path d="M54.154,346.585C24.615,346.585,0,371.2,0,400.739c0,29.539,24.615,54.154,54.154,54.154    c29.539,0,54.154-24.615,54.154-54.154C108.308,371.2,83.692,346.585,54.154,346.585z M54.154,435.2    c-18.708,0-34.461-15.754-34.461-34.462c0-18.708,15.754-34.461,34.461-34.461c18.708,0,34.462,15.754,34.462,34.461    C88.615,419.446,72.861,435.2,54.154,435.2z" fill="#6666e2"/>
	</g>
</g>
<g>
	<g>
		<path d="M147.692,167.384c-22.646,0-41.354,18.708-41.354,41.354c0,22.646,18.708,41.354,41.354,41.354    c22.646,0,41.354-18.708,41.354-41.354C189.046,186.092,170.338,167.384,147.692,167.384z M147.692,230.4    c-11.816,0-21.662-9.846-21.662-21.662c0-11.816,9.846-21.662,21.662-21.662c11.815,0,21.662,9.846,21.662,21.662    C169.354,220.554,159.508,230.4,147.692,230.4z" fill="#6666e2"/>
	</g>
</g>
<g>
	<g>
		<path d="M256,324.923c-22.646,0-41.354,18.708-41.354,41.354c0,22.646,18.708,41.354,41.354,41.354s41.354-18.708,41.354-41.354    C297.354,343.63,278.646,324.923,256,324.923z M256,387.939c-11.815,0-21.661-9.846-21.661-21.662    c0-11.816,9.846-21.662,21.661-21.662c11.815,0,21.661,9.846,21.661,21.662C277.662,378.093,267.815,387.939,256,387.939z" fill="#6666e2"/>
	</g>
</g>
<g>
	<g>
		<path d="M305.231,137.846c-22.646,0-41.354,18.708-41.354,41.354c0,22.646,18.708,41.354,41.354,41.354    s41.354-18.708,41.354-41.354C346.585,156.554,327.877,137.846,305.231,137.846z M305.231,200.862    c-11.815,0-21.661-9.846-21.661-21.662c0-11.815,9.846-21.662,21.661-21.662c11.815,0,21.661,9.846,21.661,21.662    C326.892,191.016,317.046,200.862,305.231,200.862z" fill="#6666e2"/>
	</g>
</g>
<g>
	<g>
		<path d="M423.385,9.846c-22.646,0-41.354,18.708-41.354,41.354c0,22.646,18.708,41.354,41.354,41.354s41.354-18.708,41.354-41.354    C464.738,28.554,446.031,9.846,423.385,9.846z M423.385,72.862c-11.815,0-21.661-9.846-21.661-21.662    c0-11.815,9.846-21.662,21.661-21.662c11.816,0,21.662,9.846,21.662,21.662C445.046,63.016,435.2,72.862,423.385,72.862z" fill="#6666e2"/>
	</g>
</g>
<g>
	<g>
		
			<rect x="30.538" y="287.486" transform="matrix(0.4531 -0.8915 0.8915 0.4531 -210.3947 251.7235)" width="138.836" height="19.693" fill="#6666e2"/>
	</g>
</g>
<g>
	<g>
		
			<rect x="197.953" y="221.787" transform="matrix(0.7907 -0.6122 0.6122 0.7907 -130.8641 186.8226)" width="19.692" height="126.03" fill="#6666e2"/>
	</g>
</g>
<g>
	<g>
		
			<rect x="218.933" y="261.339" transform="matrix(0.2372 -0.9715 0.9715 0.2372 -49.1314 479.7969)" width="124.054" height="19.691" fill="#6666e2"/>
	</g>
</g>
<g>
	<g>
		
			<rect x="315.308" y="102.906" transform="matrix(0.7012 -0.7129 0.7129 0.7012 29.4101 295.6825)" width="104.364" height="19.691" fill="#6666e2"/>
	</g>
</g>
<g>
</g>
<g>
</g>
<g>
</g>
<g>
</g>
<g>
</g>
<g>
</g>
<g>
</g>
<g>
</g>
<g>
</g>
<g>
</g>
<g>
</g>
<g>
</g>
<g>
</g>
<g>
</g>
<g>
</g>
</svg>
