<?xml version="1.0" encoding="iso-8859-1"?>
<!-- Generator: Adobe Illustrator 19.0.0, SVG Export Plug-In . SVG Version: 6.00 Build 0)  -->
<svg xmlns="http://www.w3.org/2000/svg" xmlns:xlink="http://www.w3.org/1999/xlink" version="1.1" id="Layer_1" x="0px" y="0px" viewBox="0 0 469.333 469.333" style="enable-background:new 0 0 469.333 469.333;" xml:space="preserve" width="512px" height="512px">
<g>
	<g>
		<path d="M458.667,384H448v-96c0-64.698-52.646-117.333-117.333-117.333h-53.333V160c0-5.896-4.771-10.667-10.667-10.667h-64    c-5.896,0-10.667,4.771-10.667,10.667v10.667h-42.667V85.333H160c5.896,0,10.667-4.771,10.667-10.667v-64    C170.667,4.771,165.896,0,160,0H10.667C4.771,0,0,4.771,0,10.667v64c0,5.896,4.771,10.667,10.667,10.667h10.667v96    c0,64.698,52.646,117.333,117.333,117.333H192v10.667c0,5.896,4.771,10.667,10.667,10.667h64c5.896,0,10.667-4.771,10.667-10.667    v-10.667H320V384h-10.667c-5.896,0-10.667,4.771-10.667,10.667v64c0,5.896,4.771,10.667,10.667,10.667h149.333    c5.896,0,10.667-4.771,10.667-10.667v-64C469.333,388.771,464.563,384,458.667,384z M21.333,21.333h128V64h-128V21.333z     M192,277.333h-53.333c-52.938,0-96-43.062-96-96v-96H128v96c0,5.896,4.771,10.667,10.667,10.667H192V277.333z M256,298.667    h-42.667v-128H256V298.667z M277.333,277.333V192h53.333c52.938,0,96,43.063,96,96v96h-85.333v-96    c0-5.896-4.771-10.667-10.667-10.667H277.333z M448,448H320v-42.667h128V448z" fill="#6666e2"/>
	</g>
</g>
<g>
</g>
<g>
</g>
<g>
</g>
<g>
</g>
<g>
</g>
<g>
</g>
<g>
</g>
<g>
</g>
<g>
</g>
<g>
</g>
<g>
</g>
<g>
</g>
<g>
</g>
<g>
</g>
<g>
</g>
</svg>
